HIERARCHY
ROOT Hips
{
  OFFSET 1.73907 43.2358 0.0522707
  CHANNELS 6 Xposition Yposition Zposition Zrotation Xrotation Yrotation
  JOINT Bip01_Pelvis
  {
    OFFSET 0 0 0
    CHANNELS 6 Xposition Yposition Zposition Zrotation Xrotation Yrotation
    JOINT BN_Tail_01
    {
      OFFSET -2.28979 -2.39917 0
      CHANNELS 6 Xposition Yposition Zposition Zrotation Xrotation Yrotation
      JOINT BN_Tail_02
      {
        OFFSET 9.67405 0 0
        CHANNELS 6 Xposition Yposition Zposition Zrotation Xrotation Yrotation
        JOINT BN_Tail_03
        {
          OFFSET 10.5192 0 -1.14441e-005
          CHANNELS 6 Xposition Yposition Zposition Zrotation Xrotation Yrotation
          JOINT BN_Tail_04
          {
            OFFSET 8.16754 0 0
            CHANNELS 6 Xposition Yposition Zposition Zrotation Xrotation Yrotation
            End Site
            {
              OFFSET 0 0 0
            }
          }
        }
      }
    }
    JOINT Bip01_Spine
    {
      OFFSET 2.25317 -0.00479889 0
      CHANNELS 6 Xposition Yposition Zposition Zrotation Xrotation Yrotation
      JOINT Bip01_R_Thigh
      {
        OFFSET -2.32652 -0.461891 -2.25534
        CHANNELS 6 Xposition Yposition Zposition Zrotation Xrotation Yrotation
        JOINT Bip01_R_Calf
        {
          OFFSET 9.47902 0 0
          CHANNELS 6 Xposition Yposition Zposition Zrotation Xrotation Yrotation
          JOINT Bip01_R_Foot
          {
            OFFSET 8.42616 0 0
            CHANNELS 6 Xposition Yposition Zposition Zrotation Xrotation Yrotation
            JOINT Bip01_R_Toe1
            {
              OFFSET 1.4015 3.97627 -1.33795
              CHANNELS 6 Xposition Yposition Zposition Zrotation Xrotation Yrotation
              JOINT Bip01_R_Toe11
              {
                OFFSET 2.94553 0 0
                CHANNELS 6 Xposition Yposition Zposition Zrotation Xrotation Yrotation
                JOINT Bip01_R_Toe1Nub
                {
                  OFFSET 2.52656 0 0
                  CHANNELS 6 Xposition Yposition Zposition Zrotation Xrotation Yrotation
                  End Site
                  {
                    OFFSET 0 0 0
                  }
                }
              }
            }
            JOINT Bip01_R_Toe0
            {
              OFFSET 2.09729 6.93129 0.0277901
              CHANNELS 6 Xposition Yposition Zposition Zrotation Xrotation Yrotation
              JOINT Bip01_R_Toe01
              {
                OFFSET 3.0714 0 0
                CHANNELS 6 Xposition Yposition Zposition Zrotation Xrotation Yrotation
                JOINT Bip01_R_Toe0Nub
                {
                  OFFSET 3.37999 0 0
                  CHANNELS 6 Xposition Yposition Zposition Zrotation Xrotation Yrotation
                  End Site
                  {
                    OFFSET 0 0 0
                  }
                }
              }
            }
          }
        }
      }
      JOINT Bip01_L_Thigh
      {
        OFFSET -2.07803 -0.462101 2.48614
        CHANNELS 6 Xposition Yposition Zposition Zrotation Xrotation Yrotation
        JOINT Bip01_L_Calf
        {
          OFFSET 9.47902 0 0
          CHANNELS 6 Xposition Yposition Zposition Zrotation Xrotation Yrotation
          JOINT Bip01_L_Foot
          {
            OFFSET 8.42617 0 0
            CHANNELS 6 Xposition Yposition Zposition Zrotation Xrotation Yrotation
            JOINT Bip01_L_Toe1
            {
              OFFSET 1.40151 3.97627 1.33796
              CHANNELS 6 Xposition Yposition Zposition Zrotation Xrotation Yrotation
              JOINT Bip01_L_Toe11
              {
                OFFSET 2.94554 0 0
                CHANNELS 6 Xposition Yposition Zposition Zrotation Xrotation Yrotation
                JOINT Bip01_L_Toe1Nub
                {
                  OFFSET 2.52656 0 0
                  CHANNELS 6 Xposition Yposition Zposition Zrotation Xrotation Yrotation
                  End Site
                  {
                    OFFSET 0 0 0
                  }
                }
              }
            }
            JOINT Bip01_L_Toe0
            {
              OFFSET 2.0973 6.93128 -0.0277834
              CHANNELS 6 Xposition Yposition Zposition Zrotation Xrotation Yrotation
              JOINT Bip01_L_Toe01
              {
                OFFSET 3.07141 0 0
                CHANNELS 6 Xposition Yposition Zposition Zrotation Xrotation Yrotation
                JOINT Bip01_L_Toe0Nub
                {
                  OFFSET 3.37999 0 0
                  CHANNELS 6 Xposition Yposition Zposition Zrotation Xrotation Yrotation
                  End Site
                  {
                    OFFSET 0 0 0
                  }
                }
              }
            }
          }
        }
      }
      JOINT Bip01_Spine1
      {
        OFFSET 6.17162 -0.00484467 0
        CHANNELS 6 Xposition Yposition Zposition Zrotation Xrotation Yrotation
        JOINT BN_R_Clavicle_01
        {
          OFFSET 6.15897 -2.02444 -2.78435
          CHANNELS 6 Xposition Yposition Zposition Zrotation Xrotation Yrotation
          JOINT BN_R_UpperArm_01
          {
            OFFSET 3.43915 0 0
            CHANNELS 6 Xposition Yposition Zposition Zrotation Xrotation Yrotation
            JOINT BN_R__Forearm_01
            {
              OFFSET 10.2529 0 0
              CHANNELS 6 Xposition Yposition Zposition Zrotation Xrotation Yrotation
              JOINT BN_R_Hand_01
              {
                OFFSET 16.2051 0 0
                CHANNELS 6 Xposition Yposition Zposition Zrotation Xrotation Yrotation
                JOINT BN_R_Finger_07
                {
                  OFFSET 2.2539 2.19923 0.192043
                  CHANNELS 6 Xposition Yposition Zposition Zrotation Xrotation Yrotation
                  End Site
                  {
                    OFFSET 0 0 0
                  }
                }
                JOINT BN_R_Finger_01
                {
                  OFFSET 2.17806 -1.99631 -0.219296
                  CHANNELS 6 Xposition Yposition Zposition Zrotation Xrotation Yrotation
                  End Site
                  {
                    OFFSET 0 0 0
                  }
                }
                JOINT BN_R_Finger_05
                {
                  OFFSET 3.30715 1.42802 0.17391
                  CHANNELS 6 Xposition Yposition Zposition Zrotation Xrotation Yrotation
                  End Site
                  {
                    OFFSET 0 0 0
                  }
                }
                JOINT BN_R_Finger_03
                {
                  OFFSET 3.93641 -0.769831 0.580946
                  CHANNELS 6 Xposition Yposition Zposition Zrotation Xrotation Yrotation
                  End Site
                  {
                    OFFSET 0 0 0
                  }
                }
              }
            }
          }
        }
        JOINT BN_L_Clavicle_01
        {
          OFFSET 6.15897 -2.02445 2.78458
          CHANNELS 6 Xposition Yposition Zposition Zrotation Xrotation Yrotation
          JOINT BN_L_UpperArm_01
          {
            OFFSET 3.43915 0 0
            CHANNELS 6 Xposition Yposition Zposition Zrotation Xrotation Yrotation
            JOINT BN_L__Forearm_01
            {
              OFFSET 10.2529 0 0
              CHANNELS 6 Xposition Yposition Zposition Zrotation Xrotation Yrotation
              JOINT BN_L_Hand_01
              {
                OFFSET 16.2051 0 0
                CHANNELS 6 Xposition Yposition Zposition Zrotation Xrotation Yrotation
                JOINT BN_L_Finger_05
                {
                  OFFSET 3.30715 -1.42803 0.173891
                  CHANNELS 6 Xposition Yposition Zposition Zrotation Xrotation Yrotation
                  End Site
                  {
                    OFFSET 0 0 0
                  }
                }
                JOINT BN_L_Finger_07
                {
                  OFFSET 2.2539 -2.19925 0.19203
                  CHANNELS 6 Xposition Yposition Zposition Zrotation Xrotation Yrotation
                  End Site
                  {
                    OFFSET 0 0 0
                  }
                }
                JOINT BN_L_Finger_01
                {
                  OFFSET 2.17804 1.99629 -0.219303
                  CHANNELS 6 Xposition Yposition Zposition Zrotation Xrotation Yrotation
                  End Site
                  {
                    OFFSET 0 0 0
                  }
                }
                JOINT BN_L_Finger_03
                {
                  OFFSET 3.9364 0.769825 0.580943
                  CHANNELS 6 Xposition Yposition Zposition Zrotation Xrotation Yrotation
                  End Site
                  {
                    OFFSET 0 0 0
                  }
                }
              }
            }
          }
        }
        JOINT Bip01_Neck
        {
          OFFSET 7.02381 -0.81237 0
          CHANNELS 6 Xposition Yposition Zposition Zrotation Xrotation Yrotation
          JOINT Bip01_Head
          {
            OFFSET 1.54249 1.14441e-005 0
            CHANNELS 6 Xposition Yposition Zposition Zrotation Xrotation Yrotation
            JOINT BN_Mouth_01
            {
              OFFSET 2.32836 0.166542 0
              CHANNELS 6 Xposition Yposition Zposition Zrotation Xrotation Yrotation
              End Site
              {
                OFFSET 0 0 0
              }
            }
            JOINT BN_R_Ear_01
            {
              OFFSET 3.4208 -0.773972 -2.25959
              CHANNELS 6 Xposition Yposition Zposition Zrotation Xrotation Yrotation
              End Site
              {
                OFFSET 0 0 0
              }
            }
            JOINT BN_L_Ear_01
            {
              OFFSET 3.4208 -0.773976 2.25975
              CHANNELS 6 Xposition Yposition Zposition Zrotation Xrotation Yrotation
              End Site
              {
                OFFSET 0 0 0
              }
            }
            JOINT Bip01_HeadNub
            {
              OFFSET 6.74789 0 0
              CHANNELS 6 Xposition Yposition Zposition Zrotation Xrotation Yrotation
              End Site
              {
                OFFSET 0 0 0
              }
            }
          }
        }
      }
    }
  }
}
MOTION
Frames:	4
Frame Time:	0.0333333
3.43693 46.1799 0.094427 -16.0066 -84.7619 9.65121 0 8.88178e-016 -3.8147e-006 -89.9965 -3.50835e-015 -90 -2.28978 -2.39918 8.88178e-016 177.384 83.8781 55.5923 9.67406 8.88178e-016 3.8147e-006 11.4863 0.995905 -10.5293 10.5192 0 -3.8147e-006 16.5777 -0.474267 -11.3118 8.16754 -8.88178e-016 -3.8147e-006 19.9373 1.87746 11.356 2.25675 -0.00419426 0 31.268 2.14354 -5.31572 -2.14336 1.0855 -2.22739 -47.7132 -22.3145 -177.228 9.47903 4.76837e-007 6.66134e-016 -79.7481 -1.04856e-005 -1.59496e-006 8.42616 -3.8147e-006 0 -25.3294 -1.91928 -15.969 1.4015 3.97628 -1.33794 85.5365 -41.2628 29.201 2.94554 0 0 -18.3475 -1.26029e-007 1.12254e-006 2.52656 1.77636e-015 0 2.45554e-007 7.42713e-008 2.38813e-007 2.09729 6.9313 0.0278177 65.2585 6.6184e-006 -9.24162e-006 3.0714 3.8147e-006 4.76837e-007 -65.3707 -7.09362e-007 -1.53118e-006 3.37999 1.90735e-006 -4.76837e-007 -4.00505e-007 6.6711e-007 1.96054e-008 -1.70316 1.26371 2.49681 -52.455 -2.33681 -164.152 9.47902 2.23517e-007 1.90735e-006 -98.6655 -7.07805e-007 8.72581e-006 8.42617 3.8147e-006 0 -27.017 0.018592 5.79396 1.40151 3.97627 1.33795 71.6153 45.8602 -19.575 2.94554 -3.8147e-006 1.90735e-006 -20.3981 -2.74151e-006 8.93195e-006 2.52656 3.8147e-006 -1.90735e-006 -179.96 -5.62295e-005 1.72338e-005 2.09729 6.93129 -0.0277882 54.3342 4.43781e-009 -3.76266e-007 3.07141 3.8147e-006 1.90735e-006 -76.4205 -4.09636e-006 -1.62414e-005 3.38 -2.26498e-006 0 179.96 -5.1083e-005 -3.81226e-005 6.17413 -0.00460053 2.38419e-007 20.7556 -1.9938 -4.10567 6.15898 -2.02445 -2.78435 -178.019 9.66754 77.6449 3.43915 3.8147e-006 -3.55272e-015 78.7843 65.3125 -62.1786 10.2529 -3.55271e-015 3.8147e-006 -63.5646 1.35906 0.854425 16.2051 -9.53675e-007 7.10543e-015 28.3297 0.208286 17.6917 2.25393 2.19924 0.19204 68.5871 0.52705 12.2934 2.17807 -1.9963 -0.2193 -71.0444 -0.18169 7.61481 3.30716 1.42802 0.173905 22.0312 1.23166 14.5521 3.93642 -0.76983 0.580941 -1.22239 0.40573 39.3824 6.15898 -2.02444 2.78458 1.29164 6.64554 -102.246 3.43915 0 1.90735e-006 -93.1716 -78.3154 -75.5174 10.2529 1.90735e-006 -7.10543e-015 67.8409 -5.28637 6.96414 16.2051 0 3.8147e-006 -25.4503 -4.51988 22.7683 3.30714 -1.42803 0.173899 -22.0449 -1.13373 0.552349 2.25391 -2.19925 0.192041 -68.6228 -0.533587 8.29406 2.17805 1.99629 -0.219298 71.0447 0.182703 6.61525 3.93641 0.769828 0.58095 0.555006 -2.50247 19.3748 7.02407 -0.812294 2.68221e-007 23.9976 -3.99472 6.00247 1.54249 -7.6294e-006 2.38419e-007 -27.8988 3.48407 -3.01044 2.10593 -0.356747 0.0332334 -102.519 -0.0332947 -179.973 3.42079 -0.773968 -2.25959 154.422 1.41847 177.05 3.4208 -0.773987 2.25975 -25.7806 1.4477 -12.7099 6.74789 -7.6294e-006 -2.38419e-007 -1.77115e-008 8.95971e-008 2.01407e-007 
3.27368 46.5093 0.126731 -12.764 -84.8407 12.4357 0 -8.88178e-016 -3.8147e-006 -89.9965 -3.50835e-015 -90 -2.28978 -2.39918 -2.66454e-015 177.034 83.6545 55.742 9.67406 -8.88178e-016 3.8147e-006 10.0965 0.47937 -9.06444 10.5192 -1.77636e-015 -3.8147e-006 16.879 0.884548 -12.0323 8.16754 1.59872e-014 -3.8147e-006 20.4236 1.24458 9.84497 2.25675 -0.00419426 8.88178e-016 31.7364 2.32188 -5.09858 -2.12541 1.09284 -2.24003 -48.0745 -22.2142 -177.213 9.47903 4.76837e-007 -1.55431e-015 -78.803 -5.64396e-007 -3.3852e-006 8.42616 -3.8147e-006 9.32588e-015 -25.8011 -1.66738 -15.7105 1.4015 3.97628 -1.33794 85.3012 -41.3645 29.0454 2.94554 0 1.06581e-014 -18.2454 7.42529e-005 -0.000224379 2.52656 -3.55272e-015 -7.10543e-015 2.45554e-007 7.42713e-008 2.38813e-007 2.09729 6.9313 0.0278177 65.0536 1.57063e-005 -4.99167e-006 3.0714 3.8147e-006 4.76837e-007 -65.2678 4.022e-005 -2.03516e-005 3.37999 1.90735e-006 -4.76837e-007 -4.00505e-007 6.6711e-007 1.96054e-008 -1.70316 1.2865 2.48495 -53.7897 -2.81025 -164.341 9.47902 2.23517e-007 1.90735e-006 -98.8795 -1.73397e-006 8.61855e-006 8.42617 3.8147e-006 0 -28.267 0.155393 4.81229 1.40151 3.97627 1.33795 71.7158 45.8353 -19.6471 2.94554 -3.8147e-006 1.90735e-006 -20.3347 0.00104168 -0.00280908 2.52656 3.8147e-006 -1.90735e-006 -179.96 -5.62294e-005 1.72337e-005 2.09729 6.93129 -0.0277882 54.1282 -1.42589e-007 -4.62525e-007 3.07141 3.8147e-006 1.90735e-006 -76.333 -0.00940438 0.00226949 3.38 -2.26498e-006 -3.55271e-015 179.96 -5.1083e-005 -3.81226e-005 6.17413 -0.00460053 2.38419e-007 22.3034 -2.10912 -4.16392 6.15898 -2.02445 -2.78435 -178.013 9.68694 77.6361 3.43915 3.8147e-006 2.30926e-013 76.7019 66.7263 -69.0134 10.2529 1.49214e-013 3.8147e-006 -57.1381 1.00899 1.24388 16.2051 -9.53674e-007 0 29.3932 -1.21362 19.2318 2.25393 2.19924 0.19204 68.5604 0.520872 15.1168 2.17807 -1.9963 -0.2193 -71.0082 -0.176337 6.66432 3.30716 1.42802 0.173905 21.7141 1.29931 16.2335 3.93642 -0.76983 0.580941 -1.16855 0.445916 35.7741 6.15898 -2.02444 2.78458 1.26292 6.56142 -102.26 3.43915 1.42109e-014 1.90735e-006 -67.4617 -76.6899 -58.4265 10.2529 1.90735e-006 0 62.7481 -4.89367 7.42222 16.2051 1.24345e-014 3.8147e-006 -26.6075 -2.52642 22.4827 3.30714 -1.42803 0.173899 -21.8286 -1.19649 4.99332 2.25391 -2.19925 0.192041 -68.5849 -0.526288 12.4878 2.17805 1.99629 -0.219297 71.0485 0.183231 5.3864 3.93641 0.769828 0.58095 0.551745 -2.4985 19.155 7.02407 -0.812294 2.67487e-007 24.5923 -3.55584 5.71269 1.54249 -7.6294e-006 2.38419e-007 -29.001 2.81515 -2.72246 2.10593 -0.356747 0.0332334 -102.064 -0.0418546 -179.822 3.42079 -0.773968 -2.25959 154.078 1.50411 176.035 3.4208 -0.773987 2.25975 -26.447 1.77456 -11.7221 6.74789 -7.6294e-006 -2.38419e-007 -1.77115e-008 8.95971e-008 2.01407e-007 
3.10749 46.8393 0.162705 -9.42688 -84.9069 15.2538 -3.55271e-015 0 -3.8147e-006 -89.9965 -3.50835e-015 -90 -2.28978 -2.39918 4.44089e-016 176.673 83.5098 55.7707 9.67406 -4.44089e-015 3.8147e-006 8.80106 -0.0225539 -7.63625 10.5192 0 -3.8147e-006 17.1088 2.14855 -12.6099 8.16754 2.22045e-014 -3.8147e-006 20.8838 0.611846 8.36874 2.25675 -0.00419426 4.44089e-016 32.1855 2.50034 -4.89447 -2.1078 1.10004 -2.25243 -48.3821 -22.1425 -177.184 9.47903 4.76837e-007 -4.44089e-016 -77.8384 -9.08023e-007 -3.30506e-006 8.42616 -3.8147e-006 1.44329e-014 -26.3357 -1.3265 -15.4146 1.4015 3.97628 -1.33794 84.6328 -41.638 28.6026 2.94554 1.77636e-015 0 -17.9508 0.00728092 -0.0224728 2.52656 -3.55272e-015 -1.42109e-014 2.45554e-007 7.42713e-008 2.38813e-007 2.09729 6.9313 0.0278177 64.4795 1.57078e-005 -4.85496e-006 3.0714 3.8147e-006 4.76837e-007 -64.9474 0.00365369 -0.00170961 3.37999 1.90735e-006 -4.76837e-007 -4.00505e-007 6.6711e-007 1.96054e-008 -1.70316 1.30885 2.47332 -55.1183 -3.30106 -164.51 9.47902 2.23517e-007 1.90735e-006 -99.3278 -8.6083e-007 8.81362e-006 8.42617 3.8147e-006 -3.55271e-015 -29.4396 0.336959 3.83883 1.40151 3.97627 1.33795 71.9946 45.7655 -19.847 2.94554 -3.8147e-006 1.90735e-006 -20.0322 -0.0149186 0.040919 2.52656 3.8147e-006 -1.90735e-006 -179.96 -5.62293e-005 1.72336e-005 2.09729 6.93129 -0.0277882 53.5573 -9.74968e-008 -4.1271e-007 3.07141 3.8147e-006 1.90735e-006 -76.0338 -0.015027 0.00371984 3.38 -2.26498e-006 7.10543e-015 179.96 -5.10829e-005 -3.81226e-005 6.17413 -0.00460053 2.38419e-007 23.962 -2.2206 -4.22489 6.15898 -2.02445 -2.78435 -177.996 9.75446 77.6188 3.43915 3.8147e-006 2.27374e-013 75.187 67.7067 -75.7087 10.2529 3.01981e-013 3.8147e-006 -51.2957 0.669021 1.53164 16.2051 -9.53674e-007 0 30.3083 -2.40626 20.4533 2.25393 2.19924 0.19204 68.5345 0.513544 17.8853 2.17807 -1.9963 -0.2193 -70.9774 -0.17269 5.73226 3.30716 1.42802 0.173905 21.4013 1.35666 17.8827 3.93642 -0.76983 0.580941 -1.11457 0.478741 32.2358 6.15898 -2.02444 2.78458 1.18577 6.32771 -102.302 3.43915 7.10543e-015 1.90735e-006 -47.9118 -74.3816 -46.841 10.2529 1.90735e-006 7.10543e-015 58.0289 -4.47366 7.74953 16.2051 8.88179e-015 3.8147e-006 -27.5584 -0.758654 22.0995 3.30714 -1.42803 0.173899 -21.6123 -1.24167 9.34835 2.25391 -2.19925 0.192041 -68.5483 -0.516463 16.6 2.17805 1.99629 -0.219297 71.0523 0.183675 4.18142 3.93641 0.769828 0.58095 0.548561 -2.49459 18.9395 7.02407 -0.812294 2.66632e-007 25.1732 -3.09933 5.41433 1.54249 -7.6294e-006 2.38419e-007 -30.1851 2.12443 -2.46318 2.10593 -0.356747 0.0332334 -101.617 -0.0490562 -179.673 3.42079 -0.773968 -2.25959 153.743 1.59393 175.04 3.4208 -0.773987 2.25975 -27.1059 2.08398 -10.7498 6.74789 -7.6294e-006 -2.38419e-007 -1.77115e-008 8.95971e-008 2.01407e-007 
2.9361 47.1767 0.201539 -5.92084 -84.9616 18.1971 -3.55271e-015 0 -3.8147e-006 -89.9965 -3.50835e-015 -90 -2.28978 -2.39918 -1.77636e-015 176.262 83.4387 55.7062 9.67406 -3.55271e-015 3.8147e-006 7.56697 -0.519235 -6.20033 10.5192 0 -3.8147e-006 17.2714 3.3611 -13.0558 8.16754 3.81917e-014 -3.8147e-006 21.3319 -0.0389804 6.88321 2.25675 -0.00419426 -1.33227e-015 32.6394 2.68457 -4.69424 -2.09001 1.10731 -2.26496 -48.6655 -22.0849 -177.144 9.47903 4.76837e-007 1.11022e-015 -76.844 -4.32733e-007 -3.40129e-006 8.42616 -3.8147e-006 2.10942e-014 -26.9248 -0.93242 -15.0952 1.4015 3.97628 -1.33794 83.5642 -42.0665 27.8895 2.94554 3.55272e-015 7.10543e-015 -17.5084 -4.80476e-007 3.00029e-006 2.52656 -3.55272e-015 -1.06581e-014 2.45554e-007 7.42712e-008 2.38813e-007 2.09729 6.9313 0.0278177 63.5804 6.7467e-006 -9.10073e-006 3.0714 3.8147e-006 4.76837e-007 -64.4837 0.000976934 -0.000468017 3.37999 1.90735e-006 -4.76837e-007 -4.00505e-007 6.6711e-007 1.96054e-008 -1.70236 1.33119 2.46104 -56.4781 -3.82333 -164.667 9.47902 2.23517e-007 1.90735e-006 -99.924 -9.77843e-007 8.86037e-006 8.42617 3.8147e-006 0 -30.565 0.572081 2.84299 1.40151 3.97627 1.33795 72.4235 45.6565 -20.154 2.94554 -3.8147e-006 1.90735e-006 -19.5124 -0.0072842 0.0205581 2.52656 3.8147e-006 -1.90735e-006 -179.96 -5.62291e-005 1.72335e-005 2.09729 6.93129 -0.0277882 52.6542 7.43564e-006 5.34977e-006 3.07141 3.8147e-006 1.90735e-006 -75.5817 -1.385e-005 -1.39414e-005 3.38 -2.26498e-006 -3.55271e-015 179.96 -5.10828e-005 -3.81226e-005 6.17413 -0.00460053 2.38419e-007 25.7211 -2.33858 -4.28233 6.15898 -2.02445 -2.78435 -177.979 9.80971 77.595 3.43915 3.8147e-006 4.51195e-013 73.9246 68.3389 -82.1924 10.2529 4.44089e-013 3.8147e-006 -45.8622 0.329075 1.72652 16.2051 -9.53674e-007 -7.10543e-015 31.0682 -3.40777 21.387 2.25393 2.19924 0.19204 68.5157 0.507904 19.9829 2.17807 -1.9963 -0.2193 -70.951 -0.170388 4.79096 3.30716 1.42802 0.173905 21.2292 1.38082 18.9651 3.93642 -0.76983 0.580941 -1.05967 0.505389 28.6625 6.15898 -2.02444 2.78458 1.05826 5.95261 -102.354 3.43915 2.84217e-014 1.90735e-006 -32.47 -71.7637 -38.9451 10.2529 1.90735e-006 -7.10543e-015 53.5397 -4.0125 7.94872 16.2051 8.88179e-015 3.8147e-006 -28.3054 0.841511 21.5941 3.30714 -1.42803 0.173899 -21.4769 -1.24975 12.7538 2.25391 -2.19925 0.192041 -68.5125 -0.486028 19.8713 2.17805 1.99629 -0.219297 71.0561 0.184035 2.9645 3.93641 0.769828 0.58095 0.545362 -2.49064 18.7219 7.02407 -0.812294 2.65647e-007 25.7626 -2.6271 5.109 1.54249 -7.6294e-006 2.38419e-007 -31.4439 1.40445 -2.21359 2.10593 -0.356747 0.0332334 -101.165 -0.0551738 -179.523 3.42079 -0.773968 -2.25959 153.407 1.69054 174.035 3.4208 -0.773987 2.25975 -27.7768 2.38498 -9.76401 6.74789 -7.6294e-006 -2.38419e-007 -1.77115e-008 8.95971e-008 2.01407e-007 
